<mxfile host="Electron" modified="2023-08-01T08:44:39.290Z" agent="Mozilla/5.0 (Windows NT 10.0; Win64; x64) AppleWebKit/537.36 (KHTML, like Gecko) draw.io/21.6.5 Chrome/114.0.5735.243 Electron/25.3.1 Safari/537.36" etag="T-Oh66gjicCFmjVznP1o" version="21.6.5" type="device">
  <diagram name="Page-1" id="a0GZQNjRFC3bPyHCfK1t">
    <mxGraphModel dx="1446" dy="710" grid="1" gridSize="10" guides="1" tooltips="1" connect="1" arrows="1" fold="1" page="1" pageScale="1" pageWidth="4681" pageHeight="3300" math="0" shadow="0">
      <root>
        <mxCell id="0" />
        <mxCell id="1" parent="0" />
        <mxCell id="LejGBaHCusOCE5LeDsdk-1" value="Web Server" style="verticalAlign=top;align=center;spacingTop=8;spacingLeft=2;spacingRight=12;shape=cube;size=10;direction=south;fontStyle=4;html=1;whiteSpace=wrap;" parent="1" vertex="1">
          <mxGeometry x="430" y="120" width="180" height="410" as="geometry" />
        </mxCell>
        <mxCell id="LejGBaHCusOCE5LeDsdk-2" value="Admin" style="verticalAlign=top;align=left;spacingTop=8;spacingLeft=2;spacingRight=12;shape=cube;size=10;direction=south;fontStyle=4;html=1;whiteSpace=wrap;" parent="1" vertex="1">
          <mxGeometry x="160" y="160" width="100" height="60" as="geometry" />
        </mxCell>
        <mxCell id="LejGBaHCusOCE5LeDsdk-3" value="Users" style="verticalAlign=top;align=left;spacingTop=8;spacingLeft=2;spacingRight=12;shape=cube;size=10;direction=south;fontStyle=4;html=1;whiteSpace=wrap;" parent="1" vertex="1">
          <mxGeometry x="160" y="250" width="100" height="60" as="geometry" />
        </mxCell>
        <mxCell id="LejGBaHCusOCE5LeDsdk-4" value="Sports Trainer" style="verticalAlign=top;align=left;spacingTop=8;spacingLeft=2;spacingRight=12;shape=cube;size=10;direction=south;fontStyle=4;html=1;whiteSpace=wrap;" parent="1" vertex="1">
          <mxGeometry x="160" y="340" width="100" height="60" as="geometry" />
        </mxCell>
        <mxCell id="LejGBaHCusOCE5LeDsdk-5" value="Fitness Trainer" style="verticalAlign=top;align=left;spacingTop=8;spacingLeft=2;spacingRight=12;shape=cube;size=10;direction=south;fontStyle=4;html=1;whiteSpace=wrap;" parent="1" vertex="1">
          <mxGeometry x="160" y="440" width="100" height="60" as="geometry" />
        </mxCell>
        <mxCell id="LejGBaHCusOCE5LeDsdk-8" value="Extends" style="endArrow=block;endSize=16;endFill=0;html=1;rounded=0;exitX=0.485;exitY=0.001;exitDx=0;exitDy=0;exitPerimeter=0;entryX=0.176;entryY=1.003;entryDx=0;entryDy=0;entryPerimeter=0;" parent="1" source="LejGBaHCusOCE5LeDsdk-2" target="LejGBaHCusOCE5LeDsdk-1" edge="1">
          <mxGeometry width="160" relative="1" as="geometry">
            <mxPoint x="430" y="320" as="sourcePoint" />
            <mxPoint x="590" y="320" as="targetPoint" />
          </mxGeometry>
        </mxCell>
        <mxCell id="LejGBaHCusOCE5LeDsdk-9" value="Extends" style="endArrow=block;endSize=16;endFill=0;html=1;rounded=0;exitX=0.485;exitY=0.001;exitDx=0;exitDy=0;exitPerimeter=0;entryX=0.176;entryY=1.003;entryDx=0;entryDy=0;entryPerimeter=0;" parent="1" edge="1">
          <mxGeometry width="160" relative="1" as="geometry">
            <mxPoint x="260" y="279.5" as="sourcePoint" />
            <mxPoint x="429" y="280.5" as="targetPoint" />
          </mxGeometry>
        </mxCell>
        <mxCell id="LejGBaHCusOCE5LeDsdk-10" value="Extends" style="endArrow=block;endSize=16;endFill=0;html=1;rounded=0;exitX=0.485;exitY=0.001;exitDx=0;exitDy=0;exitPerimeter=0;entryX=0.176;entryY=1.003;entryDx=0;entryDy=0;entryPerimeter=0;" parent="1" edge="1">
          <mxGeometry width="160" relative="1" as="geometry">
            <mxPoint x="261" y="369.5" as="sourcePoint" />
            <mxPoint x="430" y="370.5" as="targetPoint" />
          </mxGeometry>
        </mxCell>
        <mxCell id="LejGBaHCusOCE5LeDsdk-11" value="Extends" style="endArrow=block;endSize=16;endFill=0;html=1;rounded=0;exitX=0.485;exitY=0.001;exitDx=0;exitDy=0;exitPerimeter=0;entryX=0.176;entryY=1.003;entryDx=0;entryDy=0;entryPerimeter=0;" parent="1" edge="1">
          <mxGeometry width="160" relative="1" as="geometry">
            <mxPoint x="261" y="469.5" as="sourcePoint" />
            <mxPoint x="430" y="470.5" as="targetPoint" />
          </mxGeometry>
        </mxCell>
        <mxCell id="LejGBaHCusOCE5LeDsdk-12" value="Payment" style="shape=module;align=left;spacingLeft=20;align=center;verticalAlign=top;whiteSpace=wrap;html=1;" parent="1" vertex="1">
          <mxGeometry x="470" y="170" width="100" height="50" as="geometry" />
        </mxCell>
        <mxCell id="LejGBaHCusOCE5LeDsdk-13" value="Manage&lt;br&gt;Booking" style="shape=module;align=left;spacingLeft=20;align=center;verticalAlign=top;whiteSpace=wrap;html=1;" parent="1" vertex="1">
          <mxGeometry x="470" y="230" width="100" height="50" as="geometry" />
        </mxCell>
        <mxCell id="LejGBaHCusOCE5LeDsdk-14" value="Book&lt;br&gt;Service" style="shape=module;align=left;spacingLeft=20;align=center;verticalAlign=top;whiteSpace=wrap;html=1;" parent="1" vertex="1">
          <mxGeometry x="470" y="290" width="100" height="50" as="geometry" />
        </mxCell>
        <mxCell id="LejGBaHCusOCE5LeDsdk-15" value="Update&amp;nbsp;&lt;br&gt;Availability" style="shape=module;align=left;spacingLeft=20;align=center;verticalAlign=top;whiteSpace=wrap;html=1;" parent="1" vertex="1">
          <mxGeometry x="470" y="350" width="100" height="50" as="geometry" />
        </mxCell>
        <mxCell id="LejGBaHCusOCE5LeDsdk-16" value="Display sports facilities" style="shape=module;align=left;spacingLeft=20;align=center;verticalAlign=top;whiteSpace=wrap;html=1;" parent="1" vertex="1">
          <mxGeometry x="470" y="410" width="100" height="50" as="geometry" />
        </mxCell>
        <mxCell id="LejGBaHCusOCE5LeDsdk-17" value="Membership&lt;br&gt;purchase" style="shape=module;align=left;spacingLeft=20;align=center;verticalAlign=top;whiteSpace=wrap;html=1;" parent="1" vertex="1">
          <mxGeometry x="470" y="470" width="100" height="50" as="geometry" />
        </mxCell>
        <mxCell id="LejGBaHCusOCE5LeDsdk-18" value="Payment Portal" style="html=1;dropTarget=0;whiteSpace=wrap;" parent="1" vertex="1">
          <mxGeometry x="740" y="90" width="180" height="90" as="geometry" />
        </mxCell>
        <mxCell id="LejGBaHCusOCE5LeDsdk-19" value="" style="shape=module;jettyWidth=8;jettyHeight=4;" parent="LejGBaHCusOCE5LeDsdk-18" vertex="1">
          <mxGeometry x="1" width="20" height="20" relative="1" as="geometry">
            <mxPoint x="-27" y="7" as="offset" />
          </mxGeometry>
        </mxCell>
        <mxCell id="LejGBaHCusOCE5LeDsdk-20" value="" style="endArrow=classic;html=1;rounded=0;entryX=0;entryY=0.5;entryDx=0;entryDy=0;exitX=0.184;exitY=-0.009;exitDx=0;exitDy=0;exitPerimeter=0;" parent="1" source="LejGBaHCusOCE5LeDsdk-1" target="LejGBaHCusOCE5LeDsdk-18" edge="1">
          <mxGeometry width="50" height="50" relative="1" as="geometry">
            <mxPoint x="500" y="270" as="sourcePoint" />
            <mxPoint x="550" y="220" as="targetPoint" />
          </mxGeometry>
        </mxCell>
        <mxCell id="LejGBaHCusOCE5LeDsdk-21" value="" style="verticalAlign=top;align=left;spacingTop=8;spacingLeft=2;spacingRight=12;shape=cube;size=10;direction=south;fontStyle=4;html=1;whiteSpace=wrap;" parent="1" vertex="1">
          <mxGeometry x="715" y="240" width="160" height="260" as="geometry" />
        </mxCell>
        <mxCell id="LejGBaHCusOCE5LeDsdk-22" value="Database System" style="text;strokeColor=none;align=center;fillColor=none;html=1;verticalAlign=middle;whiteSpace=wrap;rounded=0;" parent="1" vertex="1">
          <mxGeometry x="740" y="250" width="110" height="30" as="geometry" />
        </mxCell>
        <mxCell id="LejGBaHCusOCE5LeDsdk-23" value="Facility details" style="html=1;dropTarget=0;whiteSpace=wrap;" parent="1" vertex="1">
          <mxGeometry x="730" y="290" width="130" height="40" as="geometry" />
        </mxCell>
        <mxCell id="LejGBaHCusOCE5LeDsdk-24" value="" style="shape=module;jettyWidth=8;jettyHeight=4;" parent="LejGBaHCusOCE5LeDsdk-23" vertex="1">
          <mxGeometry x="1" width="20" height="20" relative="1" as="geometry">
            <mxPoint x="-27" y="7" as="offset" />
          </mxGeometry>
        </mxCell>
        <mxCell id="LejGBaHCusOCE5LeDsdk-27" value="User Profile &lt;br&gt;details" style="html=1;dropTarget=0;whiteSpace=wrap;" parent="1" vertex="1">
          <mxGeometry x="730" y="340" width="130" height="40" as="geometry" />
        </mxCell>
        <mxCell id="LejGBaHCusOCE5LeDsdk-28" value="" style="shape=module;jettyWidth=8;jettyHeight=4;" parent="LejGBaHCusOCE5LeDsdk-27" vertex="1">
          <mxGeometry x="1" width="20" height="20" relative="1" as="geometry">
            <mxPoint x="-27" y="7" as="offset" />
          </mxGeometry>
        </mxCell>
        <mxCell id="LejGBaHCusOCE5LeDsdk-29" value="Payment&lt;br&gt;details" style="html=1;dropTarget=0;whiteSpace=wrap;" parent="1" vertex="1">
          <mxGeometry x="730" y="390" width="130" height="40" as="geometry" />
        </mxCell>
        <mxCell id="LejGBaHCusOCE5LeDsdk-30" value="" style="shape=module;jettyWidth=8;jettyHeight=4;" parent="LejGBaHCusOCE5LeDsdk-29" vertex="1">
          <mxGeometry x="1" width="20" height="20" relative="1" as="geometry">
            <mxPoint x="-27" y="7" as="offset" />
          </mxGeometry>
        </mxCell>
        <mxCell id="LejGBaHCusOCE5LeDsdk-31" value="Service&lt;br&gt;details" style="html=1;dropTarget=0;whiteSpace=wrap;" parent="1" vertex="1">
          <mxGeometry x="730" y="440" width="130" height="40" as="geometry" />
        </mxCell>
        <mxCell id="LejGBaHCusOCE5LeDsdk-32" value="" style="shape=module;jettyWidth=8;jettyHeight=4;" parent="LejGBaHCusOCE5LeDsdk-31" vertex="1">
          <mxGeometry x="1" width="20" height="20" relative="1" as="geometry">
            <mxPoint x="-27" y="7" as="offset" />
          </mxGeometry>
        </mxCell>
        <mxCell id="LejGBaHCusOCE5LeDsdk-33" value="" style="endArrow=classic;html=1;rounded=0;exitX=0.662;exitY=-0.004;exitDx=0;exitDy=0;exitPerimeter=0;entryX=0.431;entryY=0.991;entryDx=0;entryDy=0;entryPerimeter=0;" parent="1" source="LejGBaHCusOCE5LeDsdk-1" target="LejGBaHCusOCE5LeDsdk-21" edge="1">
          <mxGeometry width="50" height="50" relative="1" as="geometry">
            <mxPoint x="640" y="400" as="sourcePoint" />
            <mxPoint x="690" y="350" as="targetPoint" />
          </mxGeometry>
        </mxCell>
        <mxCell id="LejGBaHCusOCE5LeDsdk-34" value="" style="shape=actor;whiteSpace=wrap;html=1;" parent="1" vertex="1">
          <mxGeometry x="200" y="780" width="40" height="60" as="geometry" />
        </mxCell>
        <mxCell id="LejGBaHCusOCE5LeDsdk-35" value="Connection" style="shape=process;whiteSpace=wrap;html=1;backgroundOutline=1;" parent="1" vertex="1">
          <mxGeometry x="320" y="780" width="120" height="60" as="geometry" />
        </mxCell>
        <mxCell id="LejGBaHCusOCE5LeDsdk-36" value="" style="endArrow=classic;html=1;rounded=0;exitX=1;exitY=0.75;exitDx=0;exitDy=0;entryX=0;entryY=0.75;entryDx=0;entryDy=0;" parent="1" source="LejGBaHCusOCE5LeDsdk-34" target="LejGBaHCusOCE5LeDsdk-35" edge="1">
          <mxGeometry width="50" height="50" relative="1" as="geometry">
            <mxPoint x="510" y="720" as="sourcePoint" />
            <mxPoint x="560" y="670" as="targetPoint" />
          </mxGeometry>
        </mxCell>
        <mxCell id="LejGBaHCusOCE5LeDsdk-37" value="Modem" style="shape=cube;whiteSpace=wrap;html=1;boundedLbl=1;backgroundOutline=1;darkOpacity=0.05;darkOpacity2=0.1;" parent="1" vertex="1">
          <mxGeometry x="520" y="780" width="120" height="80" as="geometry" />
        </mxCell>
        <mxCell id="LejGBaHCusOCE5LeDsdk-38" value="" style="endArrow=classic;html=1;rounded=0;exitX=1;exitY=0.5;exitDx=0;exitDy=0;entryX=0;entryY=0;entryDx=0;entryDy=30;entryPerimeter=0;" parent="1" source="LejGBaHCusOCE5LeDsdk-35" target="LejGBaHCusOCE5LeDsdk-37" edge="1">
          <mxGeometry width="50" height="50" relative="1" as="geometry">
            <mxPoint x="510" y="720" as="sourcePoint" />
            <mxPoint x="560" y="670" as="targetPoint" />
          </mxGeometry>
        </mxCell>
        <mxCell id="LejGBaHCusOCE5LeDsdk-39" value="Internet" style="ellipse;shape=cloud;whiteSpace=wrap;html=1;" parent="1" vertex="1">
          <mxGeometry x="720" y="780" width="120" height="80" as="geometry" />
        </mxCell>
        <mxCell id="LejGBaHCusOCE5LeDsdk-40" value="" style="endArrow=classic;html=1;rounded=0;entryX=0.077;entryY=0.606;entryDx=0;entryDy=0;entryPerimeter=0;" parent="1" target="LejGBaHCusOCE5LeDsdk-39" edge="1">
          <mxGeometry width="50" height="50" relative="1" as="geometry">
            <mxPoint x="640" y="830" as="sourcePoint" />
            <mxPoint x="690" y="780" as="targetPoint" />
          </mxGeometry>
        </mxCell>
        <mxCell id="LejGBaHCusOCE5LeDsdk-41" value="" style="html=1;whiteSpace=wrap;shape=isoCube2;backgroundOutline=1;isoAngle=15;" parent="1" vertex="1">
          <mxGeometry x="490" y="940" width="90" height="100" as="geometry" />
        </mxCell>
        <mxCell id="LejGBaHCusOCE5LeDsdk-42" value="Browser" style="text;strokeColor=none;align=center;fillColor=none;html=1;verticalAlign=middle;whiteSpace=wrap;rounded=0;" parent="1" vertex="1">
          <mxGeometry x="506" y="946" width="60" height="30" as="geometry" />
        </mxCell>
        <mxCell id="LejGBaHCusOCE5LeDsdk-43" value="" style="endArrow=classic;html=1;rounded=0;entryX=1;entryY=0.25;entryDx=0;entryDy=0;exitX=0.31;exitY=0.8;exitDx=0;exitDy=0;exitPerimeter=0;" parent="1" source="LejGBaHCusOCE5LeDsdk-39" target="LejGBaHCusOCE5LeDsdk-42" edge="1">
          <mxGeometry width="50" height="50" relative="1" as="geometry">
            <mxPoint x="510" y="980" as="sourcePoint" />
            <mxPoint x="560" y="930" as="targetPoint" />
          </mxGeometry>
        </mxCell>
        <mxCell id="LejGBaHCusOCE5LeDsdk-44" value="Server" style="shape=ext;double=1;whiteSpace=wrap;html=1;aspect=fixed;" parent="1" vertex="1">
          <mxGeometry x="330" y="1080" width="80" height="80" as="geometry" />
        </mxCell>
        <mxCell id="LejGBaHCusOCE5LeDsdk-45" value="Server" style="shape=ext;double=1;whiteSpace=wrap;html=1;aspect=fixed;" parent="1" vertex="1">
          <mxGeometry x="620" y="1080" width="80" height="80" as="geometry" />
        </mxCell>
        <mxCell id="LejGBaHCusOCE5LeDsdk-46" value="Server" style="shape=ext;double=1;whiteSpace=wrap;html=1;aspect=fixed;" parent="1" vertex="1">
          <mxGeometry x="480" y="1080" width="80" height="80" as="geometry" />
        </mxCell>
        <mxCell id="LejGBaHCusOCE5LeDsdk-47" value="" style="endArrow=classic;html=1;rounded=0;exitX=0;exitY=0;exitDx=0;exitDy=78.39291168278956;exitPerimeter=0;entryX=0.5;entryY=0;entryDx=0;entryDy=0;" parent="1" source="LejGBaHCusOCE5LeDsdk-41" target="LejGBaHCusOCE5LeDsdk-44" edge="1">
          <mxGeometry width="50" height="50" relative="1" as="geometry">
            <mxPoint x="400" y="1050" as="sourcePoint" />
            <mxPoint x="450" y="1000" as="targetPoint" />
          </mxGeometry>
        </mxCell>
        <mxCell id="LejGBaHCusOCE5LeDsdk-49" value="" style="endArrow=classic;html=1;rounded=0;exitX=0.234;exitY=0.89;exitDx=0;exitDy=0;exitPerimeter=0;entryX=0.392;entryY=-0.006;entryDx=0;entryDy=0;entryPerimeter=0;" parent="1" source="LejGBaHCusOCE5LeDsdk-41" target="LejGBaHCusOCE5LeDsdk-46" edge="1">
          <mxGeometry width="50" height="50" relative="1" as="geometry">
            <mxPoint x="500" y="1028" as="sourcePoint" />
            <mxPoint x="420" y="1090" as="targetPoint" />
          </mxGeometry>
        </mxCell>
        <mxCell id="LejGBaHCusOCE5LeDsdk-50" value="" style="endArrow=classic;html=1;rounded=0;entryX=1.019;entryY=0.606;entryDx=0;entryDy=0;entryPerimeter=0;" parent="1" target="LejGBaHCusOCE5LeDsdk-41" edge="1">
          <mxGeometry width="50" height="50" relative="1" as="geometry">
            <mxPoint x="630" y="1020" as="sourcePoint" />
            <mxPoint x="600" y="990" as="targetPoint" />
          </mxGeometry>
        </mxCell>
        <mxCell id="LejGBaHCusOCE5LeDsdk-51" value="" style="endArrow=classic;html=1;rounded=0;entryX=0.239;entryY=-0.033;entryDx=0;entryDy=0;entryPerimeter=0;" parent="1" target="LejGBaHCusOCE5LeDsdk-45" edge="1">
          <mxGeometry width="50" height="50" relative="1" as="geometry">
            <mxPoint x="640" y="1030" as="sourcePoint" />
            <mxPoint x="592" y="1011" as="targetPoint" />
          </mxGeometry>
        </mxCell>
        <mxCell id="LejGBaHCusOCE5LeDsdk-52" value="Nodes" style="text;strokeColor=none;align=center;fillColor=none;html=1;verticalAlign=middle;whiteSpace=wrap;rounded=0;" parent="1" vertex="1">
          <mxGeometry x="620" y="1008" width="60" height="30" as="geometry" />
        </mxCell>
      </root>
    </mxGraphModel>
  </diagram>
</mxfile>
